<?xml version="1.0" encoding="utf-8"?>
<!-- Generator: Adobe Illustrator 25.2.0, SVG Export Plug-In . SVG Version: 6.00 Build 0)  -->
<svg version="1.1" id="레이어_1" xmlns="http://www.w3.org/2000/svg" xmlns:xlink="http://www.w3.org/1999/xlink" x="0px"
	 y="0px" viewBox="0 0 1080 1080" style="enable-background:new 0 0 1080 1080;" xml:space="preserve">
<g>
	<path d="M128.7,381.6c0-55.8,39.6-99,95.4-99c54.9,0,95.4,43.2,95.4,99c0,55.8-40.5,99-95.4,99
		C168.3,480.6,128.7,437.4,128.7,381.6z M128.7,710.1c0-54.9,39.6-99,95.4-99c54.9,0,95.4,44.1,95.4,99c0,55.8-40.5,99.9-95.4,99.9
		C168.3,810,128.7,765.9,128.7,710.1z"/>
	<path d="M419.5,225.2c0-11,9-20,20-20h172.6c204.3,0,339.3,98.1,339.3,331.2s-135,338.4-330.3,338.4H439.4c-11,0-20-9-20-20V225.2z
		 M602.2,745.2c108,0,184.5-49.5,184.5-208.8c0-159.3-76.5-203.4-184.5-203.4h-1.6c-11,0-20,9-20,20v372.2c0,11,9,20,20,20H602.2z"
		/>
</g>
</svg>
